<?xml version="1.0" encoding="utf-8"?>
<!-- Generator: Adobe Illustrator 21.1.0, SVG Export Plug-In . SVG Version: 6.00 Build 0)  -->
<svg version="1.1" id="Ebene_1" xmlns="http://www.w3.org/2000/svg" xmlns:xlink="http://www.w3.org/1999/xlink" x="0px" y="0px"
	 viewBox="0 0 99 104" style="enable-background:new 0 0 99 104;" xml:space="preserve">
<style type="text/css">
	.st0{fill:none;stroke:#000000;stroke-width:5;stroke-miterlimit:10;}
</style>
<path class="st0" d="M95.8,51.3c0-3.5-9.2-6.6-22.8-8.3V18.9C73,10.7,62.5,4,49.8,4s-23.2,6.7-23.2,14.9V43
	c-13.6,1.7-22.8,4.8-22.8,8.3c0,3.1,7.2,5.9,18.4,7.7c-1.5,3.5-2.3,7.3-2.3,11.4c0,16.3,13.4,29.6,29.9,29.6
	c16.5,0,29.9-13.2,29.9-29.6c0-4-0.8-7.9-2.3-11.4C88.5,57.3,95.8,54.5,95.8,51.3z"/>
<ellipse class="st0" cx="49.8" cy="71.7" rx="19" ry="18.8"/>
</svg>
